<svg id="Layer_1" enable-background="new 0 0 512 512" height="512" viewBox="0 0 512 512" width="512" xmlns="http://www.w3.org/2000/svg"><g><g><g id="XMLID_145_"><g><g id="XMLID_1281_"><g id="XMLID_1325_"><g id="XMLID_1515_"><g id="XMLID_1516_"><g id="XMLID_1517_"><g id="XMLID_1518_"><g id="XMLID_1519_"><g id="XMLID_1520_"><g id="XMLID_1521_"><g id="XMLID_1522_"><g id="XMLID_1523_"><g id="XMLID_1524_"><g id="XMLID_1525_"><g id="XMLID_1526_"><circle cx="256" cy="256" fill="#fedd55" r="256"/></g></g></g></g></g></g></g></g></g></g></g></g></g></g></g></g></g><path d="m512 256c0-4.545-.123-9.061-.357-13.548l-118.221-118.221-269.191 269.191 118.221 118.221c4.487.234 9.003.357 13.548.357 141.385 0 256-114.615 256-256z" fill="#fcc63d"/><g><circle cx="256" cy="256" fill="#238cf8" r="190.395"/><path d="m446.39 256c0 105.15-85.24 190.39-190.39 190.39v-380.78c105.15 0 190.39 85.24 190.39 190.39z" fill="#0768dd"/><g><path d="m243.61 345.883-110.138-97.67 43.127-48.632 64.67 57.349 92.149-90.813 45.625 46.297z" fill="#fff"/></g><g><path d="m379.04 212.41-123.04 121.26v-91.26l77.42-76.29z" fill="#eae1dc"/></g></g></g></svg>